<svg id="shopping" xmlns="http://www.w3.org/2000/svg" width="50" height="50" viewBox="0 0 50 50">
  <metadata><?xpacket begin="﻿" id="W5M0MpCehiHzreSzNTczkc9d"?>
<x:xmpmeta xmlns:x="adobe:ns:meta/" x:xmptk="Adobe XMP Core 5.6-c138 79.159824, 2016/09/14-01:09:01        ">
   <rdf:RDF xmlns:rdf="http://www.w3.org/1999/02/22-rdf-syntax-ns#">
      <rdf:Description rdf:about=""/>
   </rdf:RDF>
</x:xmpmeta>
                                                                                                    
                                                                                                    
                                                                                                    
                                                                                                    
                                                                                                    
                                                                                                    
                                                                                                    
                                                                                                    
                                                                                                    
                                                                                                    
                                                                                                    
                                                                                                    
                                                                                                    
                                                                                                    
                                                                                                    
                                                                                                    
                                                                                                    
                                                                                                    
                                                                                                    
                                                                                                    
                           
<?xpacket end="w"?></metadata>
<defs>
    <style>
      .cls-1, .cls-3, .cls-6 {
        font-size: 100px;
      }

      .cls-1, .cls-2, .cls-4, .cls-5 {
        fill: #d72525;
      }

      .cls-1, .cls-2, .cls-3, .cls-5, .cls-6, .cls-7 {
        text-anchor: middle;
        font-family: FontAwesome;
      }

      .cls-2, .cls-7 {
        font-size: 108.333px;
      }

      .cls-3 {
        fill: #c6c8b5;
      }

      .cls-4 {
        fill-rule: evenodd;
      }

      .cls-5 {
        font-size: 299.999px;
      }

      .cls-6, .cls-7 {
        fill: #fefefe;
      }
    </style>
  </defs>
  <text id="_" data-name="" class="cls-1" transform="translate(553.275 38.282) scale(0.4)"><tspan x="0"></tspan></text>
  <text id="_2" data-name="" class="cls-2" transform="translate(280.876 40.682) scale(0.4)"><tspan x="0"></tspan></text>
  <text id="_3" data-name="" class="cls-1" transform="translate(148.476 41.482) scale(0.4)"><tspan x="0"></tspan></text>
  <text id="_4" data-name="" class="cls-1" transform="translate(416.876 39.082) scale(0.4)"><tspan x="0"></tspan></text>
  <text id="_5" data-name="" class="cls-3" transform="translate(24.876 39.482) scale(0.4)"><tspan x="0"></tspan></text>
  <path class="cls-4" d="M24.8-161.6a21.2,21.2,0,0,1,21.2,21.2,21.2,21.2,0,0,1-21.2,21.2,21.2,21.2,0,0,1-21.2-21.2A21.2,21.2,0,0,1,24.8-161.6Z"/>
  <text id="_6" data-name="" class="cls-5" transform="translate(24.803 -79.89) scale(0.4)"><tspan x="0"></tspan></text>
  <text id="_7" data-name="" class="cls-6" transform="translate(24.876 -126.118) scale(0.4)"><tspan x="0"></tspan></text>
  <path class="cls-4" d="M148.8-161.6a21.2,21.2,0,0,1,21.2,21.2,21.2,21.2,0,0,1-21.2,21.2,21.2,21.2,0,0,1-21.2-21.2A21.2,21.2,0,0,1,148.8-161.6Z"/>
  <text id="_8" data-name="" class="cls-5" transform="translate(148.803 -79.89) scale(0.4)"><tspan x="0"></tspan></text>
  <text id="_9" data-name="" class="cls-6" transform="translate(148.476 -124.118) scale(0.4)"><tspan x="0"></tspan></text>
  <path class="cls-4" d="M280.8-161.6a21.2,21.2,0,0,1,21.2,21.2,21.2,21.2,0,0,1-21.2,21.2,21.2,21.2,0,0,1-21.2-21.2A21.2,21.2,0,0,1,280.8-161.6Z"/>
  <text id="_10" data-name="" class="cls-5" transform="translate(280.803 -79.89) scale(0.4)"><tspan x="0"></tspan></text>
  <text id="_11" data-name="" class="cls-7" transform="translate(280.876 -124.918) scale(0.4)"><tspan x="0"></tspan></text>
  <path class="cls-4" d="M416.8-161.6a21.2,21.2,0,0,1,21.2,21.2,21.2,21.2,0,0,1-21.2,21.2,21.2,21.2,0,0,1-21.2-21.2A21.2,21.2,0,0,1,416.8-161.6Z"/>
  <text id="_12" data-name="" class="cls-5" transform="translate(416.803 -79.89) scale(0.4)"><tspan x="0"></tspan></text>
  <text id="_13" data-name="" class="cls-6" transform="translate(416.876 -126.518) scale(0.4)"><tspan x="0"></tspan></text>
  <path class="cls-4" d="M552.8-161.6a21.2,21.2,0,0,1,21.2,21.2,21.2,21.2,0,0,1-21.2,21.2,21.2,21.2,0,0,1-21.2-21.2A21.2,21.2,0,0,1,552.8-161.6Z"/>
  <text id="_14" data-name="" class="cls-5" transform="translate(552.805 -79.89) scale(0.4)"><tspan x="0"></tspan></text>
  <text id="_15" data-name="" class="cls-6" transform="translate(553.275 -127.318) scale(0.4)"><tspan x="0"></tspan></text>
</svg>
